<?xml version="1.0" encoding="UTF-8" standalone="no"?>
<!DOCTYPE svg PUBLIC "-//W3C//DTD SVG 1.1//EN"
 "http://www.w3.org/Graphics/SVG/1.1/DTD/svg11.dtd">
<!-- Generated by graphviz version 2.43.0 (0)
 -->
<!-- Title: G Pages: 1 -->
<svg width="400pt" height="732pt"
 viewBox="0.00 0.00 399.50 732.00" xmlns="http://www.w3.org/2000/svg" xmlns:xlink="http://www.w3.org/1999/xlink">
<g id="graph0" class="graph" transform="scale(1 1) rotate(0) translate(4 728)">
<title>G</title>
<!-- Biblioteca -->
<g id="node1" class="node">
<title>Biblioteca</title>
<polygon fill="lightgrey" stroke="black" points="232,-537.5 232,-723.5 351,-723.5 351,-537.5 232,-537.5"/>
<text text-anchor="start" x="253" y="-707.7" font-family="Arial" font-weight="bold" font-size="16.00">Biblioteca</text>
<polyline fill="none" stroke="black" points="232,-697.5 351,-697.5 "/>
<text text-anchor="start" x="267.5" y="-680.7" font-family="Arial" font-size="16.00">+livros</text>
<text text-anchor="start" x="260.5" y="-662.7" font-family="Arial" font-size="16.00">+leitores</text>
<text text-anchor="start" x="240" y="-644.7" font-family="Arial" font-size="16.00">+emprestimos</text>
<text text-anchor="start" x="242" y="-626.7" font-family="Arial" font-size="16.00">+pagamentos</text>
<text text-anchor="start" x="243.5" y="-608.7" font-family="Arial" font-size="16.00">+faturamento</text>
<polyline fill="none" stroke="black" points="232,-599.5 351,-599.5 "/>
<text text-anchor="start" x="243.5" y="-582.7" font-family="Arial" font-size="16.00">emprestimo()</text>
<text text-anchor="start" x="249" y="-564.7" font-family="Arial" font-size="16.00">devolucao()</text>
<text text-anchor="start" x="241" y="-546.7" font-family="Arial" font-size="16.00">disponiveis?()</text>
</g>
<!-- Livro -->
<g id="node2" class="node">
<title>Livro</title>
<polygon fill="lightgrey" stroke="black" points="0,-346.5 0,-478.5 111,-478.5 111,-346.5 0,-346.5"/>
<text text-anchor="start" x="35.5" y="-462.7" font-family="Arial" font-weight="bold" font-size="16.00">Livro</text>
<polyline fill="none" stroke="black" points="0,-452.5 111,-452.5 "/>
<text text-anchor="start" x="30.5" y="-435.7" font-family="Arial" font-size="16.00">+nome</text>
<text text-anchor="start" x="32.5" y="-417.7" font-family="Arial" font-size="16.00">+autor</text>
<text text-anchor="start" x="37" y="-399.7" font-family="Arial" font-size="16.00">+ano</text>
<text text-anchor="start" x="8" y="-381.7" font-family="Arial" font-size="16.00">+emprestado</text>
<polyline fill="none" stroke="black" points="0,-372.5 111,-372.5 "/>
<text text-anchor="start" x="9" y="-355.7" font-family="Arial" font-size="16.00">disponivel?()</text>
</g>
<!-- Biblioteca&#45;&gt;Livro -->
<g id="edge5" class="edge">
<title>Biblioteca&#45;&gt;Livro</title>
<path fill="none" stroke="black" d="M231.66,-578.57C198.43,-549.86 156.63,-513.03 120.5,-479 119.93,-478.46 119.36,-477.93 118.79,-477.38"/>
<polygon fill="black" stroke="black" points="120.93,-474.58 111.28,-470.19 116.08,-479.64 120.93,-474.58"/>
<text text-anchor="middle" x="176.5" y="-511" font-family="Arial" font-size="10.00">Tem</text>
<text text-anchor="middle" x="176.5" y="-500" font-family="Arial" font-size="10.00">muitos</text>
</g>
<!-- Emprestimo -->
<g id="node3" class="node">
<title>Emprestimo</title>
<polygon fill="lightgrey" stroke="black" points="195,-155.5 195,-287.5 304,-287.5 304,-155.5 195,-155.5"/>
<text text-anchor="start" x="203" y="-271.7" font-family="Arial" font-weight="bold" font-size="16.00">Emprestimo</text>
<polyline fill="none" stroke="black" points="195,-261.5 304,-261.5 "/>
<text text-anchor="start" x="229.5" y="-244.7" font-family="Arial" font-size="16.00">+livro</text>
<text text-anchor="start" x="227" y="-226.7" font-family="Arial" font-size="16.00">+leitor</text>
<text text-anchor="start" x="205.5" y="-208.7" font-family="Arial" font-size="16.00">+data_inicio</text>
<text text-anchor="start" x="213.5" y="-190.7" font-family="Arial" font-size="16.00">+data_fim</text>
<polyline fill="none" stroke="black" points="195,-181.5 304,-181.5 "/>
<text text-anchor="start" x="223.5" y="-164.7" font-family="Arial" font-size="16.00">preco()</text>
</g>
<!-- Biblioteca&#45;&gt;Emprestimo -->
<g id="edge8" class="edge">
<title>Biblioteca&#45;&gt;Emprestimo</title>
<path fill="none" stroke="black" d="M300.38,-537.22C303.71,-481.45 304.42,-409.17 293.5,-346 290.72,-329.93 286.06,-313.19 280.77,-297.4"/>
<polygon fill="black" stroke="black" points="284,-296.02 277.41,-287.71 277.38,-298.31 284,-296.02"/>
<text text-anchor="middle" x="317.5" y="-415.5" font-family="Arial" font-size="10.00">Tem</text>
<text text-anchor="middle" x="317.5" y="-404.5" font-family="Arial" font-size="10.00">muitos</text>
</g>
<!-- Faturamento -->
<g id="node4" class="node">
<title>Faturamento</title>
<polygon fill="lightgrey" stroke="black" points="213.5,-0.5 213.5,-96.5 391.5,-96.5 391.5,-0.5 213.5,-0.5"/>
<text text-anchor="start" x="254" y="-80.7" font-family="Arial" font-weight="bold" font-size="16.00">Faturamento</text>
<polyline fill="none" stroke="black" points="213.5,-70.5 391.5,-70.5 "/>
<text text-anchor="start" x="282.5" y="-53.7" font-family="Arial" font-size="16.00">+total</text>
<text text-anchor="start" x="253" y="-35.7" font-family="Arial" font-size="16.00">+pagamentos</text>
<polyline fill="none" stroke="black" points="213.5,-26.5 391.5,-26.5 "/>
<text text-anchor="start" x="221.5" y="-9.7" font-family="Arial" font-size="16.00">adiciona_pagamento()</text>
</g>
<!-- Biblioteca&#45;&gt;Faturamento -->
<g id="edge9" class="edge">
<title>Biblioteca&#45;&gt;Faturamento</title>
<path fill="none" stroke="black" d="M323.64,-537.32C328.99,-518.27 333.7,-498.16 336.5,-479 355.89,-346.5 331.53,-189.26 315.13,-106.69"/>
<polygon fill="black" stroke="black" points="318.53,-105.87 313.12,-96.76 311.67,-107.25 318.53,-105.87"/>
<text text-anchor="middle" x="352" y="-320" font-family="Arial" font-size="10.00">Tem</text>
<text text-anchor="middle" x="352" y="-309" font-family="Arial" font-size="10.00">um</text>
</g>
<!-- Leitor -->
<g id="node6" class="node">
<title>Leitor</title>
<polygon fill="lightgrey" stroke="black" points="129,-355.5 129,-469.5 284,-469.5 284,-355.5 129,-355.5"/>
<text text-anchor="start" x="184" y="-453.7" font-family="Arial" font-weight="bold" font-size="16.00">Leitor</text>
<polyline fill="none" stroke="black" points="129,-443.5 284,-443.5 "/>
<text text-anchor="start" x="181.5" y="-426.7" font-family="Arial" font-size="16.00">+nome</text>
<text text-anchor="start" x="182" y="-408.7" font-family="Arial" font-size="16.00">+email</text>
<text text-anchor="start" x="179.5" y="-390.7" font-family="Arial" font-size="16.00">+senha</text>
<polyline fill="none" stroke="black" points="129,-381.5 284,-381.5 "/>
<text text-anchor="start" x="137" y="-364.7" font-family="Arial" font-size="16.00">atualiza_cadastro()</text>
</g>
<!-- Biblioteca&#45;&gt;Leitor -->
<g id="edge7" class="edge">
<title>Biblioteca&#45;&gt;Leitor</title>
<path fill="none" stroke="black" d="M255.21,-537.27C247.48,-517.64 239.48,-497.31 232.25,-478.93"/>
<polygon fill="black" stroke="black" points="235.46,-477.53 228.54,-469.51 228.95,-480.1 235.46,-477.53"/>
<text text-anchor="middle" x="260.5" y="-511" font-family="Arial" font-size="10.00">Tem</text>
<text text-anchor="middle" x="260.5" y="-500" font-family="Arial" font-size="10.00">muitos</text>
</g>
<!-- Livro&#45;&gt;Emprestimo -->
<g id="edge3" class="edge">
<title>Livro&#45;&gt;Emprestimo</title>
<path fill="none" stroke="black" d="M111.08,-355.31C114.26,-352.15 117.41,-349.03 120.5,-346 142.17,-324.72 166.14,-301.64 187.48,-281.26"/>
<polygon fill="black" stroke="black" points="190.09,-283.61 194.91,-274.17 185.26,-278.54 190.09,-283.61"/>
<text text-anchor="middle" x="168" y="-320" font-family="Arial" font-size="10.00">Tem</text>
<text text-anchor="middle" x="168" y="-309" font-family="Arial" font-size="10.00">um</text>
</g>
<!-- Autor -->
<g id="node5" class="node">
<title>Autor</title>
<polygon fill="lightgrey" stroke="black" points="22.5,-195.5 22.5,-247.5 88.5,-247.5 88.5,-195.5 22.5,-195.5"/>
<text text-anchor="start" x="34" y="-231.7" font-family="Arial" font-weight="bold" font-size="16.00">Autor</text>
<polyline fill="none" stroke="black" points="22.5,-221.5 88.5,-221.5 "/>
<text text-anchor="start" x="30.5" y="-204.7" font-family="Arial" font-size="16.00">+nome</text>
</g>
<!-- Livro&#45;&gt;Autor -->
<g id="edge4" class="edge">
<title>Livro&#45;&gt;Autor</title>
<path fill="none" stroke="black" d="M55.5,-346.46C55.5,-316.75 55.5,-282.72 55.5,-257.84"/>
<polygon fill="black" stroke="black" points="59,-257.78 55.5,-247.78 52,-257.78 59,-257.78"/>
<text text-anchor="middle" x="65" y="-320" font-family="Arial" font-size="10.00">Tem</text>
<text text-anchor="middle" x="65" y="-309" font-family="Arial" font-size="10.00">um</text>
</g>
<!-- Emprestimo&#45;&gt;Faturamento -->
<g id="edge2" class="edge">
<title>Emprestimo&#45;&gt;Faturamento</title>
<path fill="none" stroke="black" d="M274.55,-155.1C276.65,-149.01 278.67,-142.91 280.5,-137 283.56,-127.14 286.5,-116.55 289.19,-106.27"/>
<polygon fill="black" stroke="black" points="292.59,-107.09 291.68,-96.54 285.81,-105.36 292.59,-107.09"/>
<text text-anchor="middle" x="296" y="-129" font-family="Arial" font-size="10.00">Tem</text>
<text text-anchor="middle" x="296" y="-118" font-family="Arial" font-size="10.00">um</text>
</g>
<!-- Faturamento&#45;&gt;Emprestimo -->
<g id="edge1" class="edge">
<title>Faturamento&#45;&gt;Emprestimo</title>
<path fill="none" stroke="black" d="M259.43,-96.71C255.84,-102.56 252.73,-108.7 250.5,-115 247.13,-124.52 245.17,-134.83 244.16,-145.15"/>
<polygon fill="black" stroke="black" points="240.64,-145.23 243.45,-155.45 247.63,-145.71 240.64,-145.23"/>
<text text-anchor="middle" x="265.5" y="-129" font-family="Arial" font-size="10.00">Tem</text>
<text text-anchor="middle" x="265.5" y="-118" font-family="Arial" font-size="10.00">muitos</text>
</g>
<!-- Leitor&#45;&gt;Emprestimo -->
<g id="edge6" class="edge">
<title>Leitor&#45;&gt;Emprestimo</title>
<path fill="none" stroke="black" d="M219.28,-355.31C223.4,-337.24 228.02,-316.92 232.39,-297.71"/>
<polygon fill="black" stroke="black" points="235.84,-298.31 234.65,-287.79 229.02,-296.76 235.84,-298.31"/>
<text text-anchor="middle" x="238" y="-320" font-family="Arial" font-size="10.00">Tem</text>
<text text-anchor="middle" x="238" y="-309" font-family="Arial" font-size="10.00">um</text>
</g>
</g>
</svg>
